<svg width="183" height="192" viewBox="0 0 183 192" fill="none" xmlns="http://www.w3.org/2000/svg">
<path d="M73.7173 2.52835C91.5356 -2.27265 118.542 2.14866 134.558 11.3592C156.313 23.7418 172.217 44.3051 178.733 68.4745C179.719 72.1318 180.84 77.6622 181.357 81.3381C182.782 88.0745 182.544 102.589 181.628 109.588C176.553 148.353 147.98 181.391 109.476 189.898C107.157 190.41 96.6089 191.333 95.4639 192H86.5811C85.0461 191.259 76.7791 190.755 74.4262 190.292C39.5886 183.432 11.7601 155.951 3.10809 121.715C-7.25635 80.704 9.93094 33.6521 47.3188 12.5484C57.3066 6.9107 62.6982 5.13887 73.7173 2.52835Z" fill="black"/>
<path d="M86.5811 192C85.0461 191.259 76.7791 190.755 74.4262 190.292C39.5886 183.432 11.7601 155.951 3.10809 121.715C-7.25635 80.704 9.93094 33.652 47.3188 12.5483C57.3066 6.91067 62.6982 5.13884 73.7173 2.52832C74.4501 4.11551 78.3401 3.83683 79.8698 4.50235C80.4684 4.76276 81.105 5.59384 81.535 6.10738C83.2419 6.28295 83.4359 5.76154 84.5181 7.2966C84.4745 8.69997 83.4701 8.48148 83.9446 8.8711C85.6237 10.2498 89.3895 9.73443 91.3716 10.0693C66.4684 10.9663 49.4729 18.0602 32.2815 36.5148C15.631 54.3887 8.60544 76.8988 9.49164 101.111C10.5266 123.718 20.3066 145.038 36.7664 160.569C69.5616 190.962 119.823 189.685 150.303 156.628C166.372 139.28 174.758 116.18 173.558 92.5635C172.874 75.9029 168.271 61.7861 159.547 47.5635C159.419 46.8394 159.317 46.9428 159.601 46.4129L159.432 46.5199L159.565 46.2324C162.992 49.0438 164.999 51.4271 166.777 55.4412C167.002 55.9487 168.625 57.1799 168.915 57.8128C170.672 60.1828 172.612 65.6069 175.093 66.9112C175.427 67.0869 175.649 67.2755 175.948 67.49C176.194 68.8424 175.775 69.7245 176.737 70.7973C179.114 73.4498 179.565 79.1525 181.034 81.5888C181.3 81.4511 181.241 81.5448 181.357 81.338C182.782 88.0744 182.544 102.589 181.628 109.588C176.553 148.353 147.98 181.391 109.476 189.898C107.157 190.41 96.6089 191.333 95.4639 192H86.5811Z" fill="url(#paint0_linear_12_20)"/>
<path d="M73.7173 2.52835C91.5356 -2.27265 118.542 2.14866 134.558 11.3592C156.313 23.7418 172.217 44.3051 178.733 68.4745C179.719 72.1318 180.84 77.6622 181.357 81.3381C181.241 81.5449 181.3 81.4512 181.034 81.5889C179.565 79.1526 179.114 73.4499 176.737 70.7974C175.775 69.7246 176.194 68.8425 175.948 67.4901C175.649 67.2756 175.427 67.087 175.093 66.9113C172.612 65.607 170.672 60.1829 168.915 57.8129C168.625 57.18 167.002 55.9488 166.777 55.4413C164.999 51.4272 162.992 49.0439 159.565 46.2325L159.432 46.52L159.601 46.413C159.317 46.9429 159.419 46.8395 159.547 47.5636C156.684 43.1986 153.451 39.0875 149.884 35.2757C138.048 22.4291 122.259 13.9065 105.025 11.0625C100.482 10.3523 95.9569 10.2273 91.3716 10.0694C89.3895 9.73446 85.6237 10.2499 83.9446 8.87113C83.4701 8.48151 84.4745 8.7 84.5181 7.29663C83.4359 5.76157 83.2419 6.28298 81.535 6.10741C81.105 5.59387 80.4684 4.76279 79.8698 4.50238C78.3401 3.83686 74.4501 4.11554 73.7173 2.52835Z" fill="#D4A95B"/>
<path d="M85.2519 64.2897C88.993 64.272 92.7337 64.374 96.4679 64.5956C96.9839 69.6071 96.7629 76.553 96.7329 81.7157L96.5599 108.948L96.4729 138.94C96.4619 144.689 96.6219 151.599 96.2059 157.226C92.7023 157.583 88.4662 157.603 84.9866 157.122C84.501 153.852 84.7385 145.561 84.7461 141.954C84.733 131.784 84.7902 121.615 84.9175 111.446L84.9233 83.6235C84.9019 77.3396 84.7133 70.4995 85.2519 64.2897Z" fill="url(#paint1_linear_12_20)"/>
<path d="M111.694 39.2325C115.573 39.1442 119.075 39.0045 122.912 39.6134C123.444 42.9889 123.252 49.6062 123.235 53.3115L123.003 79.2963L123.037 102.924C123.063 107.014 123.322 114.487 122.744 118.2C119.147 118.685 115.148 118.598 111.531 118.358C111.283 112.659 111.428 106.523 111.456 100.788L111.501 76.2122L111.524 53.2688C111.528 48.789 111.399 43.6454 111.694 39.2325Z" fill="url(#paint2_linear_12_20)"/>
<path d="M58.3202 88.5308C60.3995 88.4779 68.8142 88.0436 69.0783 89.1852C70.1329 93.7444 70.0634 129.631 69.432 130.753L57.8814 130.454C57.5317 120.678 58.2757 110.532 57.9681 100.711C57.8477 96.8657 57.8971 92.3149 58.3202 88.5308Z" fill="#AE8641"/>
<path d="M136.987 75.4805C140.168 75.4468 145.914 75.2658 148.929 75.8358C149.384 81.8927 149.201 88.7381 149.242 94.8649C149.26 97.5773 149.395 103.933 149.098 106.387C146.071 106.156 140.388 106.336 136.976 106.218L136.987 75.4805Z" fill="#D4A95B"/>
<path d="M30.9668 108.982C34.895 109.002 38.5565 109.03 42.4871 109.246C42.4696 115.59 42.4794 121.627 42.2257 127.969C39.4869 128.135 34.1206 128.626 31.7849 127.534C30.4214 126.252 31.1746 112.238 30.9668 108.982Z" fill="#AE8641"/>
<defs>
<linearGradient id="paint0_linear_12_20" x1="45.1268" y1="178.309" x2="128.967" y2="28.87" gradientUnits="userSpaceOnUse">
<stop stop-color="#926E31"/>
<stop offset="1" stop-color="#DBAD5C"/>
</linearGradient>
<linearGradient id="paint1_linear_12_20" x1="83.8709" y1="156.399" x2="97.3227" y2="65.232" gradientUnits="userSpaceOnUse">
<stop stop-color="#9D7737"/>
<stop offset="1" stop-color="#CCA051"/>
</linearGradient>
<linearGradient id="paint2_linear_12_20" x1="99.806" y1="111.117" x2="134.236" y2="46.5223" gradientUnits="userSpaceOnUse">
<stop stop-color="#BA8E46"/>
<stop offset="1" stop-color="#D8AE5E"/>
</linearGradient>
</defs>
</svg>
